<svg version="1.1" xmlns="http://www.w3.org/2000/svg" viewBox="-266.2 -3226.6499999999996 4166.4 3563.85"><desc>Created with Snap</desc><defs></defs><g><g transform="matrix(24.0764,0,0,24.0764,601.1377,-3220.7055)"><g><path d="M74.265,60.41c0.964,2.929,1.401,5.966,1.261,9.015c2.584-0.989,5.013-2.49,7.095-4.572c0.244-0.244,0.41-0.527,0.637-0.78   c0.018-0.341,0.105-0.659,0.105-1.004c0-2.924-0.646-5.691-1.764-8.203C79.522,57.139,77.045,59.022,74.265,60.41z" fill="#e94b3c" style=""></path><path d="M54.863,81.605c2.509,1.112,5.276,1.759,8.2,1.759c0.349,0,0.664-0.085,1.004-0.103c0.253-0.227,0.541-0.393,0.781-0.637   c2.08-2.085,3.585-4.516,4.572-7.104c-3.049,0.14-6.086-0.292-9.01-1.257C59.022,77.049,57.137,79.528,54.863,81.605z" fill="#e94b3c" style=""></path><path d="M40.588,74.265c-2.925,0.965-5.965,1.396-9.013,1.257c0.988,2.588,2.49,5.023,4.573,7.104   c0.242,0.244,0.528,0.41,0.779,0.637c0.339,0.018,0.661,0.103,1.003,0.103c2.926,0,5.691-0.646,8.202-1.759   C43.861,79.528,41.976,77.049,40.588,74.265z" fill="#e94b3c" style=""></path><path d="M26.731,60.41c-2.781-1.388-5.26-3.271-7.337-5.545c-1.112,2.512-1.758,5.279-1.758,8.203c0,0.345,0.085,0.663,0.1,1.004   c0.229,0.253,0.395,0.536,0.639,0.78c2.082,2.082,4.515,3.583,7.098,4.572C25.333,66.376,25.767,63.339,26.731,60.41z" fill="#e94b3c" style=""></path><path d="M26.731,40.592c-0.964-2.929-1.398-5.966-1.259-9.016c-2.583,0.989-5.014,2.491-7.098,4.572   c-0.244,0.245-0.41,0.528-0.639,0.781c-0.015,0.341-0.1,0.659-0.1,1.004c0,2.924,0.646,5.69,1.76,8.205   C21.471,43.863,23.95,41.979,26.731,40.592z" fill="#e94b3c" style=""></path><path d="M46.132,19.397c-2.511-1.114-5.275-1.76-8.202-1.76c-0.342,0-0.664,0.084-1.003,0.102   c-0.251,0.228-0.537,0.393-0.779,0.638c-2.083,2.08-3.585,4.515-4.573,7.103c3.048-0.14,6.088,0.293,9.013,1.257   C41.976,23.952,43.861,21.475,46.132,19.397z" fill="#e94b3c" style=""></path><path d="M60.41,26.736c2.924-0.964,5.961-1.396,9.01-1.257c-0.99-2.588-2.492-5.017-4.572-7.103   c-0.24-0.245-0.528-0.41-0.781-0.638c-0.34-0.018-0.659-0.102-1.004-0.102c-2.924,0-5.691,0.646-8.2,1.76   C57.137,21.475,59.022,23.952,60.41,26.736z" fill="#e94b3c" style=""></path><path d="M82.621,36.148c-2.082-2.081-4.511-3.583-7.095-4.572c0.14,3.05-0.297,6.087-1.261,9.016   c2.78,1.388,5.257,3.271,7.334,5.547c1.117-2.515,1.764-5.281,1.764-8.205c0-0.345-0.088-0.663-0.105-1.004   C83.031,36.677,82.865,36.394,82.621,36.148z" fill="#e94b3c" style=""></path><path d="M58.228,63.068c0-0.166-0.048-0.319-0.052-0.484c-1.061-0.21-2.09-0.498-3.099-0.834c-0.462,0.921-0.89,1.851-1.469,2.719   c0.113,0.122,0.19,0.267,0.309,0.384c1.143,1.14,2.404,2.069,3.718,2.881C57.993,66.228,58.228,64.683,58.228,63.068z" fill="#e94b3c" style=""></path><path d="M43.362,67.733c1.313-0.812,2.574-1.741,3.715-2.881c0.12-0.117,0.199-0.262,0.312-0.384   c-0.581-0.868-1.008-1.798-1.471-2.719c-1.008,0.336-2.038,0.624-3.1,0.834c-0.002,0.165-0.048,0.318-0.048,0.484   C42.771,64.683,43.006,66.228,43.362,67.733z" fill="#e94b3c" style=""></path><path d="M36.148,53.922c-1.139,1.14-2.068,2.4-2.88,3.717c1.503,0.355,3.051,0.59,4.663,0.59c0.166,0,0.318-0.044,0.484-0.048   c0.209-1.06,0.495-2.094,0.833-3.102c-0.918-0.463-1.848-0.886-2.716-1.471C36.411,53.726,36.269,53.805,36.148,53.922z" fill="#e94b3c" style=""></path><path d="M38.415,42.821c-0.166-0.006-0.319-0.05-0.484-0.05c-1.612,0-3.159,0.236-4.663,0.591c0.812,1.318,1.739,2.578,2.88,3.717   c0.12,0.118,0.262,0.196,0.384,0.314c0.868-0.583,1.797-1.008,2.716-1.471C38.91,44.916,38.625,43.881,38.415,42.821z" fill="#e94b3c" style=""></path><path d="M42.771,37.934c0,0.166,0.046,0.318,0.048,0.484c1.062,0.21,2.092,0.498,3.1,0.834c0.462-0.921,0.89-1.851,1.471-2.719   c-0.113-0.123-0.192-0.267-0.312-0.385c-1.141-1.139-2.402-2.066-3.715-2.879C43.006,34.774,42.771,36.319,42.771,37.934z" fill="#e94b3c" style=""></path><path d="M57.635,33.27c-1.314,0.812-2.575,1.74-3.718,2.879c-0.118,0.118-0.195,0.262-0.309,0.385   c0.579,0.868,1.007,1.798,1.469,2.719c1.008-0.336,2.038-0.624,3.099-0.834c0.004-0.166,0.052-0.318,0.052-0.484   C58.228,36.319,57.993,34.774,57.635,33.27z" fill="#e94b3c" style=""></path><path d="M63.063,42.771c-0.166,0-0.314,0.044-0.48,0.05c-0.209,1.06-0.498,2.095-0.838,3.102c0.921,0.463,1.851,0.888,2.719,1.471   c0.122-0.118,0.266-0.196,0.384-0.314c1.139-1.139,2.067-2.398,2.883-3.717C66.226,43.008,64.678,42.771,63.063,42.771z" fill="#e94b3c" style=""></path><path d="M48.074,49.493c-0.035,0.676-0.035,1.339,0,2.012c0.452,0.502,0.921,0.969,1.42,1.423c0.671,0.034,1.335,0.034,2.007,0   c0.5-0.454,0.972-0.926,1.423-1.423c0.035-0.673,0.033-1.336,0-2.008c-0.451-0.502-0.921-0.969-1.42-1.423   c-0.673-0.035-1.34-0.035-2.012,0C48.995,48.528,48.524,48.995,48.074,49.493z" fill="#e94b3c" style=""></path><path d="M64.464,53.608c-0.868,0.585-1.798,1.008-2.719,1.471c0.34,1.008,0.628,2.042,0.838,3.102   c0.166,0.004,0.314,0.048,0.48,0.048c1.615,0,3.163-0.234,4.668-0.59c-0.816-1.316-1.745-2.577-2.883-3.717   C64.73,53.805,64.586,53.726,64.464,53.608z" fill="#e94b3c" style=""></path><path d="M72.271,55.926c2.583-1.327,4.827-3.173,6.615-5.425c-1.788-2.252-4.031-4.098-6.615-5.425   c-1.091,1.929-2.357,3.784-3.998,5.425C69.914,52.142,71.179,53.996,72.271,55.926z" fill="#e94b3c" style=""></path><path d="M62.138,31.245c0.585,2.133,0.925,4.367,0.925,6.688c2.322,0,4.555,0.341,6.689,0.93c0.868-2.745,1.143-5.603,0.82-8.436   C67.74,30.104,64.879,30.375,62.138,31.245z" fill="#e94b3c" style=""></path><path d="M50.498,22.11c-2.253,1.794-4.099,4.033-5.424,6.616c1.927,1.096,3.782,2.361,5.424,4.002   c1.644-1.641,3.498-2.906,5.426-4.002C54.597,26.144,52.752,23.904,50.498,22.11z" fill="#e94b3c" style=""></path><path d="M37.931,37.934c0-2.321,0.34-4.556,0.927-6.688c-2.74-0.87-5.601-1.141-8.432-0.817c-0.323,2.833-0.05,5.69,0.817,8.436   C33.377,38.274,35.612,37.934,37.931,37.934z" fill="#e94b3c" style=""></path><path d="M22.108,50.501c1.794,2.252,4.034,4.098,6.618,5.425c1.091-1.93,2.356-3.784,3.999-5.425   c-1.643-1.641-2.908-3.496-4.001-5.425C26.143,46.403,23.902,48.249,22.108,50.501z" fill="#e94b3c" style=""></path><path d="M38.858,69.757c-0.587-2.133-0.927-4.367-0.927-6.688c-2.319,0-4.553-0.341-6.688-0.93   c-0.868,2.745-1.14,5.604-0.817,8.436C33.257,70.896,36.118,70.627,38.858,69.757z" fill="#e94b3c" style=""></path><path d="M50.498,78.891c2.255-1.793,4.1-4.032,5.426-6.616c-1.929-1.095-3.782-2.36-5.426-4c-1.642,1.64-3.497,2.905-5.424,4   C46.401,74.858,48.245,77.098,50.498,78.891z" fill="#e94b3c" style=""></path><path d="M63.063,63.068c0,2.321-0.34,4.556-0.925,6.688c2.741,0.87,5.602,1.139,8.435,0.817c0.323-2.832,0.048-5.695-0.82-8.436   C67.618,62.728,65.385,63.068,63.063,63.068z" fill="#e94b3c" style=""></path><path d="M87.425,44.026c-0.571,2.304-1.457,4.476-2.614,6.475c1.157,1.999,2.043,4.177,2.614,6.475   C88.844,52.771,88.844,48.231,87.425,44.026z" fill="#e94b3c" style=""></path><path d="M81.233,29.05c-1.981-4.041-5.244-7.301-9.286-9.282c1.249,2.063,2.147,4.268,2.745,6.541   C76.966,26.907,79.165,27.802,81.233,29.05z" fill="#e94b3c" style=""></path><path d="M56.971,13.576c-4.204-1.418-8.742-1.418-12.947,0c2.3,0.571,4.473,1.453,6.473,2.614   C52.5,15.029,54.671,14.147,56.971,13.576z" fill="#e94b3c" style=""></path><path d="M29.047,19.768c-4.042,1.981-7.301,5.241-9.284,9.282c2.066-1.248,4.268-2.143,6.541-2.741   C26.904,24.035,27.798,21.831,29.047,19.768z" fill="#e94b3c" style=""></path><path d="M13.571,56.973c0.574-2.3,1.458-4.473,2.616-6.472c-1.159-1.999-2.04-4.171-2.616-6.472   C12.158,48.231,12.158,52.771,13.571,56.973z" fill="#e94b3c" style=""></path><path d="M19.765,71.952c1.981,4.041,5.24,7.297,9.279,9.282c-1.248-2.068-2.141-4.269-2.741-6.542   C24.031,74.095,21.829,73.2,19.765,71.952z" fill="#e94b3c" style=""></path><path d="M44.024,87.426c4.205,1.418,8.746,1.418,12.947,0c-2.3-0.572-4.472-1.453-6.474-2.614   C48.498,85.973,46.324,86.854,44.024,87.426z" fill="#e94b3c" style=""></path><path d="M71.952,81.234c4.037-1.985,7.3-5.241,9.281-9.282c-2.068,1.248-4.267,2.143-6.541,2.74   C74.095,76.966,73.2,79.166,71.952,81.234z" fill="#e94b3c" style=""></path></g><desc>Created with Snap</desc><defs></defs></g><g><g transform="matrix(1,0,0,-1,0,0)"><path d="M109 -19L53 -30L41 760Q69 774 117 783Q116 760 116 711Q116 603 124 497Q172 524 226 524Q282 524 321 497Q360 471 379 425Q398 379 406 332Q414 285 414 230Q414 170 395 114Q377 59 331 17Q286 -24 221 -24Q165 -24 110 11Q109 1 109 -19ZM121 399L118 77Q124 59 155 48Q187 38 224 38Q259 38 282 51Q306 65 318 90Q330 116 334 144Q339 172 339 208Q339 245 335 280Q331 316 319 358Q307 401 280 427Q253 453 213 453Q184 453 158 438Q133 424 121 399ZM495 213Q495 253 503 302Q512 351 529 405Q546 459 580 495Q614 531 659 531Q755 531 813 444Q871 358 871 252Q871 207 861 162Q852 118 832 75Q812 32 774 3Q737 -25 687 -29Q595 -17 545 49Q495 116 495 213ZM665 479Q630 475 606 415Q582 355 575 298Q568 242 568 199Q568 143 602 95Q637 48 680 48Q711 48 736 72Q761 96 775 131Q790 167 797 203Q805 239 805 267Q805 349 768 410Q731 471 665 479ZM952 48L974 686L1020 676L1042 29Q1033 -2 1007 -2Q989 -2 972 12Q956 27 952 48ZM1397 484L1408 439Q1381 437 1325 428Q1269 420 1241 418Q1246 383 1247 326Q1248 269 1249 227Q1251 186 1258 144Q1266 103 1289 81Q1313 59 1353 59Q1383 59 1428 73Q1447 36 1456 19Q1377 -9 1296 -9Q1266 -9 1244 9Q1222 27 1210 54Q1198 81 1190 122Q1183 164 1181 201Q1179 238 1179 286Q1179 312 1179 358Q1180 404 1180 421Q1170 420 1133 419Q1096 419 1090 419Q1083 486 1083 488Q1090 486 1106 486Q1115 486 1135 487Q1155 489 1165 489Q1169 489 1175 488Q1182 488 1184 488Q1188 598 1193 667L1238 656Q1239 632 1239 604Q1240 577 1240 543Q1241 510 1241 492Q1267 490 1319 488Q1371 486 1397 484ZM1483 57L1497 113Q1584 66 1668 66Q1728 66 1770 90Q1813 115 1813 170Q1813 219 1777 259Q1741 300 1690 331Q1639 362 1588 394Q1537 427 1501 474Q1465 522 1465 580Q1465 651 1516 709Q1567 768 1639 768Q1694 768 1761 746Q1829 724 1875 702L1863 662Q1749 701 1671 701Q1623 701 1589 670Q1555 639 1555 590Q1555 553 1574 523Q1593 493 1623 471Q1654 449 1691 428Q1729 407 1766 383Q1803 359 1833 331Q1864 303 1883 260Q1902 218 1902 165Q1902 90 1854 42Q1806 -5 1729 -5Q1663 -5 1588 13Q1514 32 1483 57ZM1958 720L2010 708Q2013 667 2014 577Q2016 487 2018 453Q2072 510 2148 510Q2216 510 2265 462Q2315 414 2315 334L2315 5Q2302 -1 2282 -1Q2260 -1 2242 3Q2242 11 2242 27Q2243 44 2243 52Q2243 91 2240 186Q2237 282 2237 346Q2222 438 2144 438Q2110 438 2077 419Q2044 401 2029 376Q2032 313 2033 186Q2034 59 2036 3Q2012 -1 1995 -1Q1970 -1 1953 5Q1955 54 1955 160Q1955 207 1954 332Q1953 458 1953 548Q1954 639 1958 720ZM2433 432L2413 483Q2439 509 2479 524Q2519 540 2558 540Q2727 540 2727 248Q2727 208 2722 130Q2718 52 2718 13Q2710 -18 2687 -18Q2669 -18 2654 0Q2639 18 2639 40Q2639 47 2640 50Q2578 -10 2508 -10Q2455 -10 2415 28Q2376 67 2376 122Q2376 215 2448 290Q2521 365 2613 365Q2617 365 2621 364Q2625 364 2630 363Q2636 362 2639 362Q2631 479 2546 479Q2496 479 2433 432ZM2642 119Q2644 189 2644 225Q2644 255 2642 309L2634 309Q2563 308 2504 256Q2446 204 2446 130Q2446 98 2465 79Q2485 60 2513 60Q2557 60 2642 119ZM3138 381L3094 384Q3073 440 3023 440Q3001 440 2976 430Q2952 420 2936 409Q2920 399 2894 379Q2894 365 2893 288Q2893 211 2894 117Q2896 23 2898 16Q2889 -14 2863 -14Q2845 -14 2828 0Q2812 15 2808 36Q2827 357 2842 521L2887 511L2890 444Q2960 502 3010 502Q3065 502 3102 477Q3140 452 3140 404Q3140 389 3138 381ZM3583 97L3593 53Q3549 37 3462 17Q3376 -2 3334 -2Q3291 -2 3259 26Q3227 55 3211 99Q3195 144 3187 187Q3180 231 3180 273Q3180 523 3406 523Q3460 523 3501 488Q3542 454 3542 399Q3542 369 3525 346Q3509 323 3485 309Q3462 296 3425 285Q3389 274 3361 269Q3333 264 3294 258Q3255 252 3240 249Q3241 220 3243 198Q3246 176 3253 150Q3261 125 3273 108Q3286 92 3308 81Q3330 70 3360 70Q3396 70 3448 76Q3500 83 3540 90Q3581 97 3583 97ZM3244 311Q3380 350 3467 393Q3460 426 3448 441Q3436 456 3412 456Q3351 456 3301 414Q3252 372 3244 311Z" fill="#2d2926" style=""></path></g></g></g></svg>